<svg viewBox="0 0 50 50" xmlns="http://www.w3.org/2000/svg"><path d="m25 1a24 24 0 1 0 24 24 24 24 0 0 0 -24-24zm10.56 20.06v.64c0 6.57-5 14.14-14 14.14a13.85 13.85 0 0 1 -7.56-2.23 11.14 11.14 0 0 0 1.17.07 9.84 9.84 0 0 0 6.12-2.13 5 5 0 0 1 -4.6-3.45 4.81 4.81 0 0 0 2.22-.1 5 5 0 0 1 -4-4.87v-.06a4.87 4.87 0 0 0 2.23.62 5 5 0 0 1 -2.14-4.12 4.92 4.92 0 0 1 .67-2.5 13.94 13.94 0 0 0 10.16 5.19 5.22 5.22 0 0 1 -.13-1.13 5 5 0 0 1 4.93-5 4.89 4.89 0 0 1 3.6 1.57 9.75 9.75 0 0 0 3.13-1.21 5 5 0 0 1 -2.17 2.75 9.88 9.88 0 0 0 2.81-.75 10 10 0 0 1 -2.44 2.57z" fill="#32ccfe"/></svg>