<svg xmlns="http://www.w3.org/2000/svg" viewBox="0 0 328.38 85.04">
    <path d="M116,59.86V85h-8.87V59.86H98.92V51h25.26v8.84Z" style="fill:#fff" />
    <path d="M150.81,58.51H140.27V64.2h10v7.49h-10v5.86h10.54V85H131.4V51h19.41Z" style="fill:#fff" />
    <path d="M187.21,85h-11L167.7,72V85h-8.86V51h13.8a13.53,13.53,0,0,1,5,.84,9.62,9.62,0,0,1,3.5,2.28,9.46,9.46,0,0,1,2.08,3.33,11.59,11.59,0,0,1,.71,4.06,10,10,0,0,1-1.88,6.3,9.44,9.44,0,0,1-5.55,3.27ZM167.7,66.23h1.68a6.45,6.45,0,0,0,4-1.09,4.15,4.15,0,0,0,0-6.22,6.51,6.51,0,0,0-4-1.08H167.7Z" style="fill:#fff" />
    <path d="M220.13,85h-11L200.63,72V85h-8.87V51h13.8a13.53,13.53,0,0,1,5,.84,9.62,9.62,0,0,1,3.5,2.28,9.49,9.49,0,0,1,2.09,3.33,11.82,11.82,0,0,1,.7,4.06,10,10,0,0,1-1.88,6.3,9.45,9.45,0,0,1-5.54,3.27Zm-19.5-18.81h1.67a6.45,6.45,0,0,0,4-1.09,4.15,4.15,0,0,0,0-6.22,6.51,6.51,0,0,0-4-1.08h-1.67Z" style="fill:#fff" />
    <path d="M247.94,79.13H235.26l-2,5.91h-9.46l13-34h9.68l13,34H250Zm-2.36-6.72-4-11.33-4,11.33Z" style="fill:#fff" />
    <path d="M263,51H276.1a15.51,15.51,0,0,1,6.53,1.4A17.85,17.85,0,0,1,288,56.14a17.12,17.12,0,0,1,3.6,5.42A16.3,16.3,0,0,1,292.88,68a16.52,16.52,0,0,1-1.29,6.43A17.35,17.35,0,0,1,288,79.9a17.67,17.67,0,0,1-5.34,3.74A15.67,15.67,0,0,1,276.1,85H263Zm8.87,26.53h2a11.09,11.09,0,0,0,4.12-.72,8.73,8.73,0,0,0,3.05-2,8.49,8.49,0,0,0,1.9-3,11.11,11.11,0,0,0,0-7.6,8.69,8.69,0,0,0-1.93-3,8.92,8.92,0,0,0-3.05-2,11,11,0,0,0-4.07-.72h-2Z" style="fill:#fff" />
    <path d="M316.88,79.13H304.21l-2,5.91h-9.46l13-34h9.68l13,34h-9.46Zm-2.35-6.72-4-11.33-4,11.33Z" style="fill:#fff" />
    <path d="M71.43,71.43V0H85V85H42.52V71.43Z" style="fill:#fff" />
    <path d="M13.6,13.6V85H0V0H42.52V13.6Z" style="fill:#fff" /></svg>