<svg xmlns="http://www.w3.org/2000/svg" viewBox="0 0 200 40"><title>アートボード 1</title><path d="M37.54,10.13c-6.94,0-9.08,4.09-9.51,4.42-1.29-2.84-4.52-4.42-7.53-4.42-3.86,0-7,1.2-9.13,4.47h-.11V10.84H1V39.15H11.64V23.82c0-2.94.91-5.07,3.6-5.07,3.22,0,3.49,2.39,3.49,5.07V39.15H29.37V23.82c0-2.94.91-5.07,3.6-5.07,3.22,0,3.49,2.39,3.49,5.07V39.15H47.1V19.73C47.1,15.15,44.68,10.13,37.54,10.13Z" style="fill:#fff"/><rect x="48.78" y="0.2" width="10.64" height="10.8" style="fill:#fff"/><rect x="48.78" y="14.42" width="10.64" height="24.73" style="fill:#fff"/><rect x="92.89" y="0.2" width="10.64" height="10.8" style="fill:#fff"/><rect x="92.89" y="14.42" width="10.64" height="24.73" style="fill:#fff"/><path d="M81.39,10.13c-4.24,0-7.09,1.47-9.08,4.31H72.2v-3.6H62V39.15H72.58V24.2c0-4.53,2.42-5.45,4.25-5.45,3.12,0,3.49,2.28,3.49,5.56V39.15H91V19.73C91,13.24,86.38,10.13,81.39,10.13Z" style="fill:#fff"/><polygon points="131.56 10.95 125.44 10.95 112.76 23.27 112.76 0.2 108.19 0.2 108.19 39.15 112.76 39.15 112.76 28.46 117.06 24.42 126.56 39.15 132.36 39.15 120.55 21.2 131.56 10.95" style="fill:#fff"/><path d="M151.28,26.87c0,5.08-2.68,8.84-8.21,8.84A5.28,5.28,0,0,1,137.42,30V11h-4.56V29.49c0,6.06,2.25,10.31,9.56,10.31a9.63,9.63,0,0,0,9-5.12h.11v4.47h4.3V11h-4.57Z" style="fill:#fff"/><path d="M162.62,16.89h-.1V11h-4.3v28.2h4.56V26.6c0-7.15,2.68-11.39,10.05-11.39V10.29C167.88,10.13,164.82,12.37,162.62,16.89Z" style="fill:#fff"/><path d="M197.6,35.71c-1.45,0-1.45-1-1.45-3.16V18c0-6.6-5.42-7.75-10.42-7.75-6.18,0-11.49,2.46-11.77,9.44h4.57c.22-4.14,3.06-5.34,6.93-5.34,2.9,0,6.18.64,6.18,4.69,0,3.48-4.3,3.16-9.35,4.14-4.72.93-9.4,2.29-9.4,8.68,0,5.61,4.14,7.9,9.19,7.9a12.23,12.23,0,0,0,9.77-4.36c0,3.06,1.51,4.36,3.87,4.36A6.12,6.12,0,0,0,199,39v-3.6A3.81,3.81,0,0,1,197.6,35.71Zm-6-6.38c0,2.57-2.47,6.38-8.48,6.38-2.8,0-5.38-1.09-5.38-4.14,0-3.44,2.58-4.53,5.59-5.08s6.5-.6,8.27-1.91Z" style="fill:#fff"/></svg>